<svg id="Layer_1" data-name="Layer 1" xmlns="http://www.w3.org/2000/svg" viewBox="0 0 63.03 65.38"><defs><style>.cls-1{fill:#fff;opacity:0.6;}.cls-2{fill:#ececec;}</style></defs><title>box-grey</title><rect class="cls-1" x="0.61" y="0.25" width="62.06" height="35"/><path class="cls-2" d="M0,.78V34.67a.8.8,0,0,0,.24.56L1,36,31,65.16a.8.8,0,0,0,1.1,0L62,36l.79-.77a.8.8,0,0,0,.24-.56V.78A.78.78,0,0,0,62.25,0H.78A.78.78,0,0,0,0,.78ZM31.5,64.31,2.45,36h58.1ZM1,34.22V1.78A.78.78,0,0,1,1.78,1H61.22a.78.78,0,0,1,.78.78V34.22a.78.78,0,0,1-.78.78H1.78A.78.78,0,0,1,1,34.22Z"/></svg>